<?xml version="1.0" encoding="UTF-8"?>
<svg width="100px" height="100px" viewBox="0 0 100 100" version="1.1" xmlns="http://www.w3.org/2000/svg" xmlns:xlink="http://www.w3.org/1999/xlink">
    <!-- Generator: Sketch 42 (36781) - http://www.bohemiancoding.com/sketch -->
    <title>我的云主机</title>
    <desc>Created with Sketch.</desc>
    <defs></defs>
    <g id="Page-1" stroke="none" stroke-width="1" fill="none" fill-rule="evenodd">
        <g id="我的云主机" fill="#4C4C4C">
            <g id="云主机" transform="translate(16.000000, 14.000000)">
                <path d="M48.9726834,37.9867134 C46.0317263,39.5606181 43.6436796,41.9862035 42.1502532,44.9595208 C35.1745909,45.8516516 30,51.4508919 30,58.394595 C30,65.0055081 34.8646618,70.5423212 41.2067885,71.6343102 C40.6342663,71.7390952 40.0438623,71.7939154 39.4405681,71.7939154 L10.2166237,71.7939154 C4.95425879,71.7939154 0.680868664,67.6344114 0.680868664,62.5243951 L0.680868664,10.0671721 C0.680868664,4.95341927 4.95425879,0.79391536 10.2166237,0.79391536 L39.4405681,0.79391536 C44.6955495,0.79391536 48.9725794,4.95352306 48.9726834,10.0671721 L48.9726834,37.9867134 Z M41.3892956,23.2211517 L41.3892956,13.0737723 C41.3892956,10.7209478 39.6010295,8.80508087 37.3969989,8.80508087 L12.2529134,8.80508087 C10.0486748,8.80508087 8.2532332,10.7210516 8.2532332,13.0737723 L8.2532332,23.2211517 L41.3892956,23.2211517 Z M41.3892956,36.1073521 L41.3892956,25.9673418 L8.2532332,25.9673418 L8.2532332,36.1073521 C8.2532332,38.4600728 10.0486748,40.3740715 12.2529134,40.3740715 L37.3969989,40.3740715 C39.6010295,40.3740715 41.3892956,38.4600728 41.3892956,36.1073521 Z M23.3731895,59.97194 C26.1287531,59.97194 28.3763558,57.7305447 28.3763558,54.9751941 C28.3763558,52.2166824 26.1287531,49.97194 23.3731895,49.97194 C20.6177163,49.97194 18.3763558,52.2167754 18.3763558,54.9751941 C18.3763558,57.7304517 20.6177163,59.97194 23.3731895,59.97194 Z" id="主机"></path>
                <path d="M69.6046536,51.2542897 C68.3172412,45.0335189 62.8015892,40.2760924 56.000036,40.2760924 C50.6661617,40.2760924 46.0717041,43.2054308 43.8658319,47.5971823 C38.1658115,48.3261688 33.9375,52.901474 33.9375,58.5753796 C33.9375,64.6125967 38.9024216,69.5535768 44.968732,69.5535768 L68.8680436,69.5535768 C74.0174055,69.5535768 78.0625,65.5265692 78.0625,60.4018206 C78.062572,55.6459696 74.2019178,51.6202511 69.6046536,51.2542897" id="云"></path>
            </g>
        </g>
    </g>
</svg>